<svg xmlns="http://www.w3.org/2000/svg" xmlns:xlink="http://www.w3.org/1999/xlink" width="256" height="256"><defs><g id="a" data-image="23196"><g transform="translate(208 -6)"><svg width="84" height="84"><g><svg xmlns="http://www.w3.org/2000/svg" style="height:512px;width:512px" viewBox="0 0 512 512" xmlns:xlink="http://www.w3.org/1999/xlink"><path d="M255.563 19.313c-8.59.207-18.054 4.34-28.22 12.906L153.75 137.874l77.625 36.75-35.25-31.906c49.398-102.846 72.005-100.992 117.78 0l-34.842 31.56 77.343-36.405-73.78-105.906c-9.694-9.432-18.4-12.867-27.063-12.657zm82.593 147.812L258.75 204.5l-4 1.875-3.97-1.875-76.56-36.25L69.343 291.094l18.75 14.125 66.03 15.06 28.94-118.217 17.217 8.156-69.53 283.905h92.906l15.594-265.47 15.594 7.376 17.75-8.374 15.656 266.47h92.906l-69.75-284.72 17.25-8.125 29.22 119.25 71.687-16.405L444 291.095l-105.844-123.97zM103.094 327.813a30.642 30.642 0 00-1.97 10.812c0 16.984 13.767 30.75 30.75 30.75a30.8 30.8 0 0010.69-1.906l7.092-29.033-46.562-10.625zm306.812 0l-47.562 10.875 6.906 28.28a30.603 30.603 0 0011.875 2.407c16.984 0 30.75-13.766 30.75-30.75 0-3.81-.706-7.448-1.97-10.813z" fill="rgba(0, 0, 0, 0.03)" style="touch-action:none"/></svg></g></svg></g></g><g id="b" data-image="7665"><g transform="rotate(-14 457.841 -521.83)"><svg width="84.404" height="84.404"><g><svg xmlns="http://www.w3.org/2000/svg" style="height:512px;width:512px" viewBox="0 0 512 512" xmlns:xlink="http://www.w3.org/1999/xlink"><path d="M71 22.406v102.53h202.25v18.69h-73.22v36.968h-18.686v-36.97H79.156l43.375 53.782h180.44v18.688H180.905v36.97H162.22v-36.97h-39.407v163.562h58.53v-44.75H157.47V316.22h74.155v-33.66H193.72v-18.687h97.218v18.688h-40.625v33.656h73.28v18.686h-32.437v44.75h26.313v18.688h-63.69l-2.686 74.03-18.688-.687 2.656-73.343H93.032V398h-.22l-28.687 92.844h79.844l9.81-70.688 18.5 2.563-9.468 68.124H453.25L424.562 398h-30.03V197.78l51.812-64.25V22.407h-64.406v52.438h-39.22V22.406h-65.124v52.438h-38.53V22.406h-65.126v52.438h-38.5V22.406H71zm129.03 312.5v44.75h72.44v-44.75h-72.44z" fill="rgba(0, 0, 0, 0.03)" style="touch-action:none"/></svg></g></svg></g></g><g id="c" data-image="77669"><g transform="rotate(2 -782.704 963.14)"><svg width="64" height="64"><g><svg xmlns="http://www.w3.org/2000/svg" style="height:512px;width:512px" viewBox="0 0 512 512" xmlns:xlink="http://www.w3.org/1999/xlink"><path d="M107.5 18c40.728 58.21-63.708 25.914-88.03 2.47 1.058 40.082 100.03 99.633 147.374 72.124C195.904 75.71 136.984 22.936 107.5 18zm97.75 57.28l.875 1.47c120.364 99-4.023 175.247-64.97 48.78 15.823 82.506-78.425 44.2-89.655-30.655C-13.17 230.463 172.715 231.293 178.438 324c3.23 52.3-77.82 19.908-113.875-48.844C308.49 797.09 814.024 262.64 205.25 75.28zm134.97 136.376c44.577 0 85.52 18.708 109.56 52.5 43.656 75.614-63.777 27.4-70.717-8.844-21.45 58.675 101.883 114.72 16 170.375 25.962-34.188 2.345-113.552-87.875-109.125 116.512 72.473 42.326 206.9-19.688 93.157 1.306 35.083 11.99 54.83 27.156 64.436-60.89-11.955-107.03-65.528-107.03-129.906 0-39.06 16.94-74.22 43.874-98.5 1.674 61.897 83.61 37.656 115.97 62.344-11.544-60.34-56.022-59.933-82.72-84.28 16.883-7.803 35.67-12.158 55.47-12.158zM234.72 309a44.022 44.022 0 00-4.064.25c26.032 6.737 74.684 83.827 33.875 61.75 3.41 14.6 43.038 41.75 57.5 21.156 18.816-26.79-44.374-83.634-87.31-83.156z" fill="rgba(0, 0, 0, 0.03)" style="touch-action:none"/></svg></g></svg></g></g><g id="d" data-image="19873"><g transform="rotate(-2 2351.743 567.465)"><svg width="80" height="80"><g><svg xmlns="http://www.w3.org/2000/svg" style="height:512px;width:512px" viewBox="0 0 512 512" xmlns:xlink="http://www.w3.org/1999/xlink"><path d="M146.857 20.842c-12.535-.036-24.268 2.86-37.285 9.424h.004C61.356 54.6 19.966 120.734 17.982 175.91l41.848 14.236c4.33-61.89 47.057-128.37 101.527-155.86h.002a133.652 133.652 0 0113.185-5.8l-22.26-7.45a83.687 83.687 0 00-5.428-.194zm59.34 20.19c-10.478-.09-22.832 3.093-36.424 9.943l.004-.004c-48.23 24.34-89.625 90.513-91.548 145.436l156.485 53.24c3.865-62.22 46.797-129.372 101.613-157.035h.002l.002-.003a134.399 134.399 0 0112.832-5.666l-134.54-45.036a43.905 43.905 0 00-8.427-.873zm174.97 58.323c-10.476-.09-22.83 3.092-36.42 9.94l-.005.002c-48.577 24.518-90.225 91.473-91.586 146.623l46.205 15.72c3.914-62.188 46.825-129.274 101.607-156.92a128.588 128.588 0 0113.53-5.91l-26.544-8.884a44.788 44.788 0 00-6.785-.57zm63.554 22.014c-10.267.093-22.094 3.353-35.333 10.034-47.158 23.8-87.777 87.587-91.362 141.75l174.55-73.726c-.404-39.01-10.754-61.304-24.415-71.082a36.057 36.057 0 00-7.55-4.137l-.01.034-4.735-1.584c-3.48-.887-7.195-1.327-11.144-1.29zM17.9 195.622l-.035 187.484L59.46 397.58V209.764l-41.56-14.14zm60.25 20.498v187.962l156.282 54.37V269.288l-29.053-9.886v119.43L104.325 344.75V225.025L78.15 216.12zm414.22 3.683L318.433 293.27v189.236l173.935-73.504v-189.2zm-369.354 11.582v99.947l63.675 21.477v-99.763l-63.674-21.662zm31.306 28.797c9.705 0 17.573 7.867 17.573 17.572 0 6.34-3.37 11.88-8.407 14.97v28.53h-18.69v-28.746c-4.838-3.13-8.048-8.562-8.048-14.754 0-9.705 7.867-17.572 17.572-17.572zm98.797 15.464v189.307l46.626 16.22V291.51l-46.627-15.864z" fill="rgba(0, 0, 0, 0.03)" style="touch-action:none"/></svg></g></svg></g></g><g id="e" data-image="42367"><g transform="rotate(18 -240.188 303.51)"><svg width="84" height="84"><g><svg xmlns="http://www.w3.org/2000/svg" style="height:512px;width:512px" viewBox="0 0 512 512" xmlns:xlink="http://www.w3.org/1999/xlink"><path d="M253.714 20.358c-8.79.075-17.448.82-25.89 2.308-46.55 8.208-89.423 26.157-121.225 52.065-31.803 25.908-52.572 59.39-56.316 100.053l-.004.04-.004.04c-8.45 83.885 39.397 152.37 65.604 181.553 5.21 5.804 7.064 13.574 6.533 20.862-.53 7.288-3.04 14.494-6.598 21.838-7.114 14.688-18.703 30.06-31.03 44.457-13.957 16.303-27.375 29.703-37.75 39.627 7.203-1.214 14.764-4.37 22.67-9.368 14.66-9.265 29.554-24.475 42.097-41.298 12.543-16.824 22.807-35.28 28.802-50.586 2.998-7.654 4.912-14.54 5.614-19.72.7-5.178-.177-8.39-.354-8.687-15.34-25.73-31.257-52.027-40.687-79.112-9.43-27.085-12.2-55.565-.073-83.35 25.223-57.79 78.02-85.085 130.772-89.605 52.61-4.508 105.963 12.396 136.545 44.71l23.292 22.474 69.254-41.47c-20.34-26.314-55.49-55.33-96.24-76.257-33.546-17.226-70.702-28.978-106.18-30.428-2.957-.12-5.902-.17-8.832-.144zM372.42 146.184l-.058-.057.31.313c-.083-.087-.17-.17-.25-.256zM244.814 118.95a166.63 166.63 0 00-7.4.457c-3.562.305-7.11.73-10.64 1.255l9.628 45.077a117.136 117.136 0 0117.646-3.564l-9.233-43.226zm43.85 3.658c-4.866 12.845-7.33 25.916-6.978 39.04 6.034.48 12.086 1.335 18.12 2.557-.868-12.19 1.306-24.43 6.362-36.98a173.172 173.172 0 00-17.504-4.617zm-106.672 11.79c-6.112 3.028-12 6.54-17.612 10.532 17.55 8.862 29.7 22.763 34.715 39.594a107.366 107.366 0 0115.564-10.063c-6.122-16.257-17.577-30.086-32.666-40.063zm88.136 44.796c-1.156-.002-2.308.014-3.457.047-2.675.076-5.328.242-7.952.502-41.993 4.176-77.31 30.258-87.475 90.07-2.198 12.94 4.293 42.822 12.246 67.66 7.952 24.836 16.634 45.517 16.634 45.517l.504 1.198.143 1.295c1.96 17.7-9.11 34.967-21.212 52.26-8.036 11.486-16.43 22.104-23.97 31.72 24-1.35 45.963-11.985 67.177-30.947-.124-.5-.17-.71-.313-1.297-.866-3.594-1.955-8.697-1.687-14.68.446-9.983 5.674-21.958 18.818-31.868-24.577-35.02-28.898-78.757-24.06-115.027l.886-6.65 6.626-1.05c58.715-9.29 97.246-28.81 139.34-54.593-27.566-21.88-61.198-34.115-92.25-34.158zm120.197 37.84c-48.424 30.517-91.56 55.67-157.556 67.35-3.253 33.408 2.427 71.84 25.226 100.798 12.607.61 23.264 6.977 29.904 16.184 6.747 9.353 9.946 21.162 10.83 33.628 23.288 21.426 62.97 39.024 97.764 56.655-3.17-39.444-.296-76.34-14.538-114.11l-62.842-25.3-.062-.027c-14.313-6.018-23.332-13.792-26.512-24.03-3.18-10.236-.874-19.966 1.188-31.064l2.2-11.852 10.74 5.476c23.407 11.94 51.394 20.52 77.548 20.065l6.582-.116 2.103 6.238c10.593 31.436 12.912 56.612 15.752 82.203l7.787 3.113c4.126-29.38 1.912-68.686-3.862-104.425-5.463-33.817-14.72-65.03-22.252-80.788zM223.397 441.148c-.01.444.094.455.01.04-.002-.008-.01-.033-.01-.04z" fill="rgba(0, 0, 0, 0.03)" style="touch-action:none"/></svg></g></svg></g></g><g id="f" data-image="6759"><g transform="rotate(6 109 1410.842)"><svg width="74" height="74"><g><svg xmlns="http://www.w3.org/2000/svg" style="height:512px;width:512px" viewBox="0 0 512 512" xmlns:xlink="http://www.w3.org/1999/xlink"><path d="M319.61 20.654c13.145 33.114 13.144 33.115-5.46 63.5 33.114-13.145 33.116-13.146 63.5 5.457-13.145-33.114-13.146-33.113 5.457-63.498-33.114 13.146-33.113 13.145-63.498-5.459zM113.024 38.021c-11.808 21.04-11.808 21.04-35.724 24.217 21.04 11.809 21.04 11.808 24.217 35.725 11.808-21.04 11.808-21.04 35.724-24.217-21.04-11.808-21.04-11.808-24.217-35.725zm76.55 56.184c-.952 50.588-.95 50.588-41.991 80.18 50.587.95 50.588.95 80.18 41.99.95-50.588.95-50.588 41.99-80.18-50.588-.95-50.588-.95-80.18-41.99zm191.177 55.885c-.046 24.127-.048 24.125-19.377 38.564 24.127.047 24.127.046 38.566 19.375.047-24.126.046-24.125 19.375-38.564-24.126-.047-24.125-.046-38.564-19.375zm-184.086 83.88a96.38 96.38 0 00-3.492.134c-18.591 1.064-41.868 8.416-77.445 22.556L76.012 433.582c78.487-20.734 132.97-21.909 170.99-4.615V247.71c-18.076-8.813-31.79-13.399-46.707-13.737a91.166 91.166 0 00-3.629-.002zm122.686 11.42a209.3 209.3 0 00-8.514.098c-12.81.417-27.638 2.215-45.84 4.522v177.135c43.565-7.825 106.85-4.2 171.244 7.566l-39.78-177.197c-35.904-8.37-56.589-11.91-77.11-12.123zm2.289 16.95c18.889.204 36.852 2.768 53.707 5.02l4.437 16.523c-23.78-3.75-65.966-4.906-92.467-.98l-.636-17.805c11.959-2.154 23.625-2.88 34.959-2.758zm-250.483 4.658L60.54 313.002h24.094l10.326-46.004H71.158zm345.881 0l39.742 177.031 2.239 9.973 22.591-.152-40.855-186.852h-23.717zm-78.857 57.82c16.993.026 33.67.791 49.146 2.223l3.524 17.174c-32.645-3.08-72.58-2.889-102.995 0l-.709-17.174c16.733-1.533 34.04-2.248 51.034-2.223zm-281.793 6.18l-6.924 30.004h24.394l6.735-30.004H56.389zm274.418 27.244c4.656.021 9.487.085 14.716.203l2.555 17.498c-19.97-.471-47.115.56-59.728 1.05l-.7-17.985c16.803-.493 29.189-.828 43.157-.766zm41.476.447c8.268.042 16.697.334 24.121.069l2.58 17.74c-8.653-.312-24.87-.83-32.064-.502l-2.807-17.234a257.25 257.25 0 018.17-.073zm-326.97 20.309l-17.985 77.928 25.035-.17 17.455-77.758H45.313zm303.164 11.848c19.608-.01 38.66.774 56.449 2.572l2.996 20.787c-34.305-4.244-85.755-7.697-119.1-3.244l-.14-17.922c20.02-1.379 40.186-2.183 59.795-2.193zm-166.606 44.05c-30.112.09-67.916 6.25-115.408 19.76l-7.22 2.053 187.759-1.27v-6.347c-16.236-9.206-37.42-14.278-65.13-14.196zm134.41 6.174c-19.63.067-37.112 1.439-51.283 4.182v10.064l177.594-1.203c-44.322-8.634-89.137-13.17-126.31-13.043zM26 475v18h460v-18H26z" fill="rgba(0, 0, 0, 0.03)" style="touch-action:none"/></svg></g></svg></g></g><g id="g" data-image="16903"><g transform="rotate(8 -1309.563 197.203)"><svg width="90" height="90"><g><svg xmlns="http://www.w3.org/2000/svg" style="height:512px;width:512px" viewBox="0 0 512 512" xmlns:xlink="http://www.w3.org/1999/xlink"><path d="M256.16 15.822c-74.685 0-124.825 36.292-157.865 90.487C66.36 158.692 51.637 228.053 50.68 294.954c44.44 12.795 73.834 28.683 90.46 50.123 15.804 20.383 18.445 45.188 12.157 71.963 23.635 7.218 62.826 11.32 100.986 10.905 38.28-.416 76.213-5.67 96.373-13.44-4.608-25.936-.182-50.215 16.983-70.07 17.928-20.738 48.197-36.53 93.4-49.488-.972-63.406-15.24-132.688-46.868-185.92-20.367-34.277-47.386-61.936-82.97-77.972-62.555 14.347-113.232 44.996-143.62 84.12 25.38 8.96 46.088 21.593 65.35 34.583l10.742 7.244-10.266 7.906c-26.884 20.705-46.28 43.707-65.26 67.48 28.468 22.27 47.56 52.2 29.02 65.186-33.572 23.518-170.713 1.396-119.002-78.754 6.006-9.31 15.307-13.314 26.2-13.496 14.635-.244 32.144 6.414 48.4 16.37 17.11-21.452 35.198-43.144 59.1-63.32-18.538-11.88-37.98-22.425-61.975-29.265l-12.29-3.503 7.066-10.65c28.184-42.48 75.737-75.727 134.613-94.523-13.362-3.012-27.71-4.612-43.118-4.612h-.002zm126.594 189.502c10.892.182 20.19 4.187 26.197 13.496 51.712 80.15-85.427 102.272-119 78.754-31.496-22.06 45.603-93.04 92.804-92.25zM252.2 309.057c13.922 0 38.53 68.05 30.277 79.51-6.48 8.996-54.935 8.617-60.555 0-7.197-11.034 16.31-79.51 30.277-79.51zM354.71 433.13c-10.557 3.91-23.223 6.832-37.17 8.952l5.94 48.89h53.416l-22.185-57.84zm-207.888 1.57l-18.5 56.273h47.092l5.914-48.684c-12.764-1.877-24.484-4.38-34.506-7.59zm152.17 9.667c-13.13 1.28-26.996 1.98-41.078 2.21v44.396h46.74l-5.662-46.606zm-99.107.14l-5.647 46.466h44.99V446.6c-13.444-.204-26.714-.894-39.343-2.094z" fill="rgba(0, 0, 0, 0.03)" style="touch-action:none"/></svg></g></svg></g></g><g id="h" data-image="36366"><g transform="rotate(19 118.818 275.482)"><svg width="64" height="64"><g><svg xmlns="http://www.w3.org/2000/svg" style="height:512px;width:512px" viewBox="0 0 512 512" xmlns:xlink="http://www.w3.org/1999/xlink"><path d="M409.248 29.684c3.828 12.413 9.872 22.882 19.256 31.27 10.446 9.34 25.473 16.427 47.517 19.835-8.642-26.622-29.204-43.506-66.772-51.106zm-14.38 13.21c-2.17 7.77-3.924 16.89-6.038 24.815 2.105 13.02 10.736 23.494 20.97 30.718 5.298 3.74 10.93 6.518 15.74 8.176 4.367 1.506 7.928 1.833 9.284 1.798 10.123-4.084 19.774-8.003 27.32-11.963-19.234-4.405-34.26-11.893-45.638-22.067-9.954-8.9-16.9-19.664-21.637-31.48zM359.087 66.98c1.425 19.454 7.056 35.45 18.18 47.17 12.518 13.19 32.85 22.053 65.656 23.135-.76-2.868-1.82-5.89-3.23-9.06a71.314 71.314 0 00-.965-2.057l-.79.11c-5.922.82-11.746-.41-18.265-2.66-6.52-2.247-13.513-5.733-20.25-10.487-13.235-9.34-25.767-23.95-28.567-43.506-4.077-1.236-8.03-2.127-11.77-2.645zm-17.99.57c-5.79 1.495-10.09 4.375-12.754 8.302-4.722 6.955-4.81 17.894 1.217 31.45 6.024 13.554 18.04 28.607 34.45 40.827 16.41 12.22 33.933 19.162 48.136 20.67 14.204 1.51 24.04-2.167 28.762-9.122a18.576 18.576 0 002.174-4.38c-36.37-1.108-62.263-11.254-78.873-28.755-14.836-15.63-21.543-36.268-23.114-58.99zM228.73 107.97c-2.578.033-5.56.327-8.615.944-6.11 1.234-12.59 3.6-17.375 6.252-4.785 2.65-7.348 6.072-7.267 5.844l-.008.023-.01.026c-14.557 40.605-22.74 81.154-26.424 119.723.542-.242 1.075-.49 1.618-.73 15.643-6.942 32.042-13.412 48.895-18.987 4.993-36.947 12.116-72.98 17.67-110.75-.047-.224-.078-.57-.164-.668-.142-.156-.71-.64-2.142-1.06-1.433-.42-3.603-.648-6.18-.615zm27.684 11.63c-.792-.003-1.59.005-2.387.01-5.035 33.06-11.004 64.28-15.562 95.648 28.016-7.912 56.962-12.99 85.558-13.307 13.124-.146 26.172.726 39.024 2.766-.228-11.615-.755-23.75-1.584-36.415a148.289 148.289 0 01-7.568-5.274c-14.78-11.005-26.613-23.993-34.71-37.487-18.547-2.153-37.928-5.467-59.02-5.897-1.244-.025-2.494-.04-3.75-.044zm-86.105 20.386c-16.768 8.332-34.632 19.79-53.812 35.375-48.44 39.358-67.29 89.586-68.45 136.283 7.318-5.54 16.118-11.827 26.325-18.603 20.598-13.675 46.584-29.165 75.834-43.457 2.675-35.187 8.91-72.17 20.102-109.598zm209.79 38.518c.546 10.29.91 20.28 1.056 29.924a192.024 192.024 0 0112.62 3.648c-1.557-10.684-2.98-20.677-3.868-29.697a115.73 115.73 0 01-9.808-3.874zm-50.864 41.637c-1.795-.017-3.594-.01-5.396.013-49.042.673-100.334 16.134-145.89 36.35-36.446 16.173-69.07 35.233-93.622 51.533-12.276 8.15-22.54 15.613-30.22 21.636-7.452 5.845-12.548 10.57-14.018 12.217-4.238 6.17-7.326 26.743-4.412 41.902 1.473 7.667 4.37 13.902 6.703 16.36 2.055 2.162 2.33 2.648 5.266 1.3 149.357-153.41 299.423-134.323 367.02-134.576.004-.17-.09-.05.006-.48.437-1.952.406-6.08-.447-10.51-.854-4.432-2.404-9.233-4.125-13.097-1.432-3.213-3.003-5.448-3.733-6.385-24.053-11.125-50.198-16.023-77.13-16.265zm29.772 64.052c-36.22.19-79.797 3.29-127.686 18.88.005 37.683 4.587 77.873 17.182 123.456 11.903-2.708 22.84-6.48 32.822-11.395a718.155 718.155 0 01-4.283-6.235 241.621 241.621 0 01-3.508-5.295c-.942-1.475-1.398-1.8-2.38-4.257l16.712-6.686c-.315-.79-.302-.782-.11-.424.19.358.557 1.068.95 1.684a231.106 231.106 0 003.236 4.88c1.456 2.15 3.17 4.632 4.97 7.223a117.89 117.89 0 0021.376-18.962c11.918-13.463 21.59-30.53 28.872-51.583l-11.77-2.277 3.42-17.672 13.555 2.624c2.72-10.468 4.934-21.78 6.64-33.96zm18.297.11c-1.76 13.298-4.115 25.725-7.073 37.308l12.125 2.346-3.42 17.67-13.806-2.67c-8.043 24.044-19.125 43.952-33.364 60.034a134.656 134.656 0 01-24.516 21.72 5485.808 5485.808 0 007.668 10.782l-14.63 10.488s-3.926-5.503-8.542-12.017c-11.684 5.995-24.44 10.53-38.203 13.738a597.096 597.096 0 006.84 20.61c35.275-9.565 69.29-27.967 97.933-53.252 36.618-32.324 44.638-79.417 43.202-126.274-7.524-.14-15.59-.348-24.213-.485zM213.52 309.398c-14.842 5.707-30.04 12.67-45.514 21.163.44 6.155.974 12.196 1.596 18.106 6.714 63.8 24.172 113.214 35.207 130.86.405.22.858.477 1.547.734 1.758.655 4.275 1.378 7.143 1.99 5.735 1.224 12.928 2.02 19.21 1.85 6.284-.17 11.603-1.674 13.202-2.766.8-.546.69-.58.715-.672.026-.09.234-.792-.525-2.85l-.004-.013-.006-.015c-23.465-64.19-31.912-118.596-32.572-168.387zm-62.77 31.225c-26.05 16.06-52.765 36.623-79.75 62.912 6.44 10.74 13.832 19.65 21.664 26.063l.154.125.15.132c25.377 22.736 55.29 35.62 86.716 40.108-2.678-6.23-5.332-13.262-7.9-21.026-8.723-.56-17.685-1.407-26.88-2.53l2.18-17.868c6.55.8 12.936 1.447 19.17 1.956-6.127-22.523-11.352-49.515-14.555-79.947-.345-3.27-.658-6.584-.95-9.927z" fill="rgba(0, 0, 0, 0.03)" style="touch-action:none"/></svg></g></svg></g></g><g id="i" data-image="24826"><g transform="rotate(3 -3283.179 2620.844)"><svg width="62" height="62"><g><svg xmlns="http://www.w3.org/2000/svg" style="height:512px;width:512px" viewBox="0 0 512 512" xmlns:xlink="http://www.w3.org/1999/xlink"><path d="M103.432 17.844a86.782 86.782 0 00-3.348.08c-2.547.11-5.083.334-7.604.678-20.167 2.747-39.158 13.667-52.324 33.67-24.613 37.4 2.194 98.025 56.625 98.025.536 0 1.058-.012 1.583-.022v.704h60.565c-10.758 31.994-30.298 66.596-52.448 101.43a283.192 283.192 0 00-6.29 10.406l34.878 35.733-56.263 9.423c-32.728 85.966-27.42 182.074 48.277 182.074v-.002l9.31.066c23.83-.57 46.732-4.298 61.325-12.887 4.174-2.458 7.63-5.237 10.467-8.42h-32.446c-20.33 5.95-40.8-6.94-47.396-25.922-8.956-25.77 7.52-52.36 31.867-60.452a55.552 55.552 0 0117.565-2.834v-.406h178.33c-.57-44.403 16.35-90.125 49.184-126 23.955-26.176 42.03-60.624 51.3-94.846l-41.225-24.932 38.272-6.906-43.37-25.807h-.005l.002-.002.002.002 52.127-8.85c-5.232-39.134-28.84-68.113-77.37-68.113C341.14 32.26 222.11 35.29 149.34 28.496c-14.888-6.763-30.547-10.723-45.908-10.652zm.464 18.703c13.137.043 27.407 3.804 41.247 10.63l.033-.07c4.667 4.735 8.542 9.737 11.68 14.985H82.92l10.574 14.78c10.608 14.83 19.803 31.99 21.09 42.024.643 5.017-.11 7.167-1.814 8.836-1.705 1.67-6.228 3.875-15.99 3.875-40.587 0-56.878-44.952-41.012-69.06C66.238 46.64 79.582 39.22 95.002 37.12a64.146 64.146 0 018.894-.573zM118.5 80.78h46.28c4.275 15.734 3.656 33.07-.544 51.51H131.52c1.9-5.027 2.268-10.574 1.6-15.77-1.527-11.913-7.405-24.065-14.62-35.74zm101.553 317.095c6.44 6.84 11.192 15.31 13.37 24.914 3.797 16.736 3.092 31.208-1.767 43.204-4.526 11.175-12.576 19.79-22.29 26h237.19c14.448 0 24.887-5.678 32.2-14.318 7.312-8.64 11.2-20.514 10.705-32.352a47.733 47.733 0 00-2.407-13.18l-69.91-8.205 42.017-20.528c-8.32-3.442-18.64-5.537-31.375-5.537H220.053zm-42.668.506a36.999 36.999 0 00-3.457.153 34.825 34.825 0 00-7.824 1.63c-15.11 5.02-25.338 21.54-20.11 36.583 3.673 10.57 15.347 17.71 25.654 13.938l1.555-.57h43.354c.946-6.36.754-13.882-1.358-23.192-3.71-16.358-20.543-28.483-37.815-28.54z" fill="rgba(0, 0, 0, 0.03)" style="touch-action:none"/></svg></g></svg></g></g><g id="j" data-image="28054"><g transform="rotate(29 -303.271 281.902)"><svg width="48" height="48"><g><svg xmlns="http://www.w3.org/2000/svg" style="height:512px;width:512px" viewBox="0 0 512 512" xmlns:xlink="http://www.w3.org/1999/xlink"><path d="M133.28 18.22c-21.24.154-43.79 7.987-63.56 23.03a32.506 32.506 0 00-8.47-1.906c-10.406-.905-21.097 3.164-28.125 11.812-8.964 11.03-9.41 26.375-2.22 37.844-19.66 41.305-13.464 86.867 16.157 110.938 22.238 18.072 52.514 20.727 82.376 9.187l5.03-1.938 4.22 3.407 46.562 37.812L201.844 228l-43.875-35.656 11.78-14.5 43.875 35.625 15.344-18.876-43.876-35.656 11.78-14.5 43.876 35.656 16.563-20.375-46.532-37.814-4.218-3.437.875-5.345c5.19-31.587-3.573-60.646-25.812-78.72-13.53-10.994-30.48-16.316-48.344-16.186zm-2.25 25.468l43.845 13.874L139.562 101l-24.25-7.656 15.72-49.656zM57.876 57.78c.548-.016 1.107.013 1.656.064 2.637.243 5.25 1.265 7.5 3.093 6 4.876 6.876 13.408 2 19.407-4.874 5.998-13.406 6.907-19.405 2.03-6-4.875-6.876-13.406-2-19.405 2.666-3.282 6.41-5.068 10.25-5.19zm56.906 59.75l55.376 11.564-32.72 40.25-22.655-51.813zM91.22 123l12.468 22.156-35.313 43.438-22.53-40.063L91.218 123zm155.03 80l-21.97 27.03 125.157 101.69-24.593 30.25 17.562 14.28 19.875-24.47 14.5 11.783-19.874 24.468 13.25 10.783-16.687 20.53-38.126 44.47 14.187 12.156 32.595-38 19.25 8.03 22.906-28.188 14.5 11.782-41.092 50.562 18.187 14.78 61.406-75.56 15.44 12.562 21.967-27.032L246.25 203z" fill="rgba(0, 0, 0, 0.04)" style="touch-action:none"/></svg></g></svg></g></g><g id="k" data-image="58806"><g transform="rotate(9 -947.672 -46.474)"><svg width="60" height="60"><g><svg xmlns="http://www.w3.org/2000/svg" style="height:512px;width:512px" viewBox="0 0 512 512" xmlns:xlink="http://www.w3.org/1999/xlink"><path d="M486 203.652H310.111L256 37.113l-54.111 166.539H26l142.22 103.623-54.462 167.612L256 371.24l142.242 103.646-54.473-167.612zm-85.995 28.008l-65.335 47.596-15.46-47.596h80.795zM256 127.708l24.658 75.91H231.33zM111.995 231.66h80.795l-15.45 47.596zm55.097 169.713l24.932-76.743 40.194 29.29zm34.041-104.762l21.1-64.951h67.524l21.099 64.95-54.867 39.977zm143.731 104.762l-65.082-47.454 40.194-29.29zm-37.983-264.359l-10.424-32.092a183.269 183.269 0 01114.322 81.21H376.43a155.293 155.293 0 00-69.55-49.118zM129 371.328l-10.413 32.049a182.425 182.425 0 01-43.918-142.581l26.684 19.435v2.847A153.804 153.804 0 00129 371.284zm177.104 58.108l26.64 19.413a182.447 182.447 0 01-153.51 0l26.64-19.413a154.79 154.79 0 00100.23 0zM135.569 186.133h-34.348a183.269 183.269 0 01114.322-81.21l-10.424 32.091a155.293 155.293 0 00-69.55 49.119zm303.12 96.955a181.922 181.922 0 01-45.276 120.245L383 371.285a153.804 153.804 0 0027.68-88.197v-2.846l26.683-19.446a183.685 183.685 0 011.325 22.292z" fill="rgba(0, 0, 0, 0.03)" style="touch-action:none"/></svg></g></svg></g></g><g id="l" data-image="55450"><g transform="rotate(14 -552.836 897.146)"><svg width="34" height="34"><g><svg xmlns="http://www.w3.org/2000/svg" style="height:512px;width:512px" viewBox="0 0 512 512" xmlns:xlink="http://www.w3.org/1999/xlink"><path d="M264.4 95.01c-35.6-.06-80.2 11.19-124.2 34.09C96.27 152 61.45 182 41.01 211.3c-20.45 29.2-25.98 56.4-15.92 75.8 10.07 19.3 35.53 30.4 71.22 30.4 35.69.1 80.29-11.2 124.19-34 44-22.9 78.8-53 99.2-82.2 20.5-29.2 25.9-56.4 15.9-75.8-10.1-19.3-35.5-30.49-71.2-30.49zm91.9 70.29c-3.5 15.3-11.1 31-21.8 46.3-22.6 32.3-59.5 63.8-105.7 87.8-46.2 24.1-93.1 36.2-132.5 36.2-18.6 0-35.84-2.8-50.37-8.7l10.59 20.4c10.08 19.4 35.47 30.5 71.18 30.5 35.7 0 80.3-11.2 124.2-34.1 44-22.8 78.8-52.9 99.2-82.2 20.4-29.2 26-56.4 15.9-75.7zm28.8 16.8c11.2 26.7 2.2 59.2-19.2 89.7-18.9 27.1-47.8 53.4-83.6 75.4 11.1 1.2 22.7 1.8 34.5 1.8 49.5 0 94.3-10.6 125.9-27.1 31.7-16.5 49.1-38.1 49.1-59.9 0-21.8-17.4-43.4-49.1-59.9-16.1-8.4-35.7-15.3-57.6-20zm106.7 124.8c-10.2 11.9-24.2 22.4-40.7 31-35 18.2-82.2 29.1-134.3 29.1-21.2 0-41.6-1.8-60.7-5.2-23.2 11.7-46.5 20.4-68.9 26.1 1.2.7 2.4 1.3 3.7 2 31.6 16.5 76.4 27.1 125.9 27.1s94.3-10.6 125.9-27.1c31.7-16.5 49.1-38.1 49.1-59.9z" fill="rgba(0, 0, 0, 0.04)" style="touch-action:none"/></svg></g></svg></g></g><g id="m" data-image="86663"><g transform="rotate(12 -857.274 1050.59)"><svg width="55.317" height="55.317"><g><svg xmlns="http://www.w3.org/2000/svg" style="height:512px;width:512px" viewBox="0 0 512 512" xmlns:xlink="http://www.w3.org/1999/xlink"><path d="M192 22.406c-1.116.01-2.227.032-3.344.063C110.036 24.667 31.22 78.444 22.78 166.72c36.28-57.542 111.226-39.602 97.532 32.374 34.528-48.998 108-6.56 91.126 36.875a57.773 57.773 0 00-14.375 24.436 52.118 52.118 0 00-7.407-.406c-8.31.174-16.004 2.5-22.47 6.78-9.193 6.09-15.415 16.174-16.78 27.814-.663 5.657-.217 11.64 1.344 17.78l-44 42.126 82.72-11.22-16.345-24.78c-.004-.008.004-.023 0-.03-4.59-8.555-5.833-15.946-5.156-21.72.773-6.605 3.817-11.285 8.53-14.406 4.195-2.78 10.137-4.337 17.25-3.5.706 19.904 11.67 38.224 29 48.22-1.963 8.995-5.146 15.323-9.03 20.123-5.837 7.212-13.817 11.578-24.032 15.125-20.43 7.096-49.176 9.42-73.094 28.938-16.534 13.492-23.706 30.644-22.75 46.625.955 15.98 9.375 30.28 21.312 40.156 11.938 9.877 27.78 15.568 44.188 13.376 12.81-1.71 25.544-8.47 36.187-20.625 8.264 5.754 16 13.057 23.25 21.845 5.466-33.608 4.89-68.43-4.624-105.063-15.498 26.303-36.19 49.6-66.344 67.5 10.966.254 21.27 2.46 30.97 6.5-7.102 7.112-14.607 10.37-21.907 11.344-10.573 1.413-21.425-2.31-29.813-9.25-8.387-6.94-13.963-16.862-14.562-26.875-.6-10.01 3.11-20.618 15.906-31.06 18.563-15.15 43.676-17.5 67.438-25.75 11.88-4.128 23.607-10.13 32.406-21 5.415-6.693 9.51-15.02 12.094-25.25 11.967 2.42 23.922.925 34.47-3.626 8.432 12.26 16.06 23.816 17.123 31.312.633 4.466.138 7.127-3.625 11.125-2.183 2.322-5.808 4.95-11.187 7.595l-.03-.22-43.94 14.47 54.876 54.22-7.842-49.283c9.445-3.92 16.556-8.45 21.75-13.968 7.212-7.663 9.788-17.69 8.53-26.563-2.07-14.607-11.246-27.07-19.78-38.81a57.787 57.787 0 0014.187-19.47c30.866-38.44 82.993-1.49 63.25 55.438 50.463-53.127 91.272-7.716 78.844 43.218C506.964 296.638 515.542 149.092 417 86.72c5.394 96.634-39.326 133.366-86.813 130.56 8.533-4.576 15.234-12.534 17.938-22.624a36.229 36.229 0 00.906-14.437c6.56-6.188 11.527-14.246 14.033-23.595 4.568-17.04-.135-33.9-11.282-45.97 1.728 6.93 1.88 14.3-.217 22.126-2.748 10.25-8.54 18.718-15.75 24.157a36.174 36.174 0 00-13.375-6.78c-9.164-2.455-18.458-1.168-26.25 2.905-7.454-9.137-10.465-23.08-6.75-36.937 2.004-7.478 5.384-13.74 10.03-18.78-15.03 5.186-27.51 17.173-31.937 33.686-4.38 16.344.032 33.082 10.283 45.157a36.206 36.206 0 001.78 23.344 119.49 119.49 0 01-19.687-16.468c-37.63-39.066-31.36-98.562 29.188-129.656-28.218-21.218-62.49-31.3-97.094-31z" fill="rgba(0, 0, 0, 0.03)" style="touch-action:none"/></svg></g></svg></g></g><g id="n" data-image="29271"><g transform="rotate(7 -380.121 856.818)"><svg width="40" height="40"><g><svg xmlns="http://www.w3.org/2000/svg" style="height:512px;width:512px" viewBox="0 0 512 512" xmlns:xlink="http://www.w3.org/1999/xlink"><path d="M247 25.076L107.053 130.004l64.996 32.486L247 106.297v-81.22zm18 0v81.22l74.95 56.194 65-32.488zm-9 96.968l-74 55.48v156.948l74 55.482 74-55.482V177.527l-74-55.482zm4.215 17.67c-28.781 79.629-56.99 184.009-63.65 199.094l-.35-151.095 64-48zM99 146.1v219.8l65-32.488V178.588zm314 0l-65 32.488v154.824l65 32.488zM172.048 349.51l-64.995 32.486L247 486.924v-81.22l-74.95-56.194zm167.903 0L265 405.703v81.22l139.947-104.927z" fill="rgba(0, 0, 0, 0.04)" style="touch-action:none"/></svg></g></svg></g></g></defs><path fill="rgba(240, 228, 197, 1)" d="M0 0h256v256H0z"/><use xlink:href="#a" transform="translate(-256 -256)"/><use xlink:href="#a" transform="translate(0 -256)"/><use xlink:href="#a" transform="translate(256 -256)"/><use xlink:href="#a" transform="translate(-256)"/><use xlink:href="#a"/><use xlink:href="#a" transform="translate(256)"/><use xlink:href="#a" transform="translate(-256 256)"/><use xlink:href="#a" transform="translate(0 256)"/><use xlink:href="#a" transform="translate(256 256)"/><use xlink:href="#b" transform="translate(-256 -256)"/><use xlink:href="#b" transform="translate(0 -256)"/><use xlink:href="#b" transform="translate(256 -256)"/><use xlink:href="#b" transform="translate(-256)"/><use xlink:href="#b"/><use xlink:href="#b" transform="translate(256)"/><use xlink:href="#b" transform="translate(-256 256)"/><use xlink:href="#b" transform="translate(0 256)"/><use xlink:href="#b" transform="translate(256 256)"/><use xlink:href="#c" transform="translate(-256 -256)"/><use xlink:href="#c" transform="translate(0 -256)"/><use xlink:href="#c" transform="translate(256 -256)"/><use xlink:href="#c" transform="translate(-256)"/><use xlink:href="#c"/><use xlink:href="#c" transform="translate(256)"/><use xlink:href="#c" transform="translate(-256 256)"/><use xlink:href="#c" transform="translate(0 256)"/><use xlink:href="#c" transform="translate(256 256)"/><use xlink:href="#d" transform="translate(-256 -256)"/><use xlink:href="#d" transform="translate(0 -256)"/><use xlink:href="#d" transform="translate(256 -256)"/><use xlink:href="#d" transform="translate(-256)"/><use xlink:href="#d"/><use xlink:href="#d" transform="translate(256)"/><use xlink:href="#d" transform="translate(-256 256)"/><use xlink:href="#d" transform="translate(0 256)"/><use xlink:href="#d" transform="translate(256 256)"/><use xlink:href="#e" transform="translate(-256 -256)"/><use xlink:href="#e" transform="translate(0 -256)"/><use xlink:href="#e" transform="translate(256 -256)"/><use xlink:href="#e" transform="translate(-256)"/><use xlink:href="#e"/><use xlink:href="#e" transform="translate(256)"/><use xlink:href="#e" transform="translate(-256 256)"/><use xlink:href="#e" transform="translate(0 256)"/><use xlink:href="#e" transform="translate(256 256)"/><use xlink:href="#f" transform="translate(-256 -256)"/><use xlink:href="#f" transform="translate(0 -256)"/><use xlink:href="#f" transform="translate(256 -256)"/><use xlink:href="#f" transform="translate(-256)"/><use xlink:href="#f"/><use xlink:href="#f" transform="translate(256)"/><use xlink:href="#f" transform="translate(-256 256)"/><use xlink:href="#f" transform="translate(0 256)"/><use xlink:href="#f" transform="translate(256 256)"/><use xlink:href="#g" transform="translate(-256 -256)"/><use xlink:href="#g" transform="translate(0 -256)"/><use xlink:href="#g" transform="translate(256 -256)"/><use xlink:href="#g" transform="translate(-256)"/><use xlink:href="#g"/><use xlink:href="#g" transform="translate(256)"/><use xlink:href="#g" transform="translate(-256 256)"/><use xlink:href="#g" transform="translate(0 256)"/><use xlink:href="#g" transform="translate(256 256)"/><use xlink:href="#h" transform="translate(-256 -256)"/><use xlink:href="#h" transform="translate(0 -256)"/><use xlink:href="#h" transform="translate(256 -256)"/><use xlink:href="#h" transform="translate(-256)"/><use xlink:href="#h"/><use xlink:href="#h" transform="translate(256)"/><use xlink:href="#h" transform="translate(-256 256)"/><use xlink:href="#h" transform="translate(0 256)"/><use xlink:href="#h" transform="translate(256 256)"/><use xlink:href="#i" transform="translate(-256 -256)"/><use xlink:href="#i" transform="translate(0 -256)"/><use xlink:href="#i" transform="translate(256 -256)"/><use xlink:href="#i" transform="translate(-256)"/><use xlink:href="#i"/><use xlink:href="#i" transform="translate(256)"/><use xlink:href="#i" transform="translate(-256 256)"/><use xlink:href="#i" transform="translate(0 256)"/><use xlink:href="#i" transform="translate(256 256)"/><use xlink:href="#j" transform="translate(-256 -256)"/><use xlink:href="#j" transform="translate(0 -256)"/><use xlink:href="#j" transform="translate(256 -256)"/><use xlink:href="#j" transform="translate(-256)"/><use xlink:href="#j"/><use xlink:href="#j" transform="translate(256)"/><use xlink:href="#j" transform="translate(-256 256)"/><use xlink:href="#j" transform="translate(0 256)"/><use xlink:href="#j" transform="translate(256 256)"/><use xlink:href="#k" transform="translate(-256 -256)"/><use xlink:href="#k" transform="translate(0 -256)"/><use xlink:href="#k" transform="translate(256 -256)"/><use xlink:href="#k" transform="translate(-256)"/><use xlink:href="#k"/><use xlink:href="#k" transform="translate(256)"/><use xlink:href="#k" transform="translate(-256 256)"/><use xlink:href="#k" transform="translate(0 256)"/><use xlink:href="#k" transform="translate(256 256)"/><use xlink:href="#l" transform="translate(-256 -256)"/><use xlink:href="#l" transform="translate(0 -256)"/><use xlink:href="#l" transform="translate(256 -256)"/><use xlink:href="#l" transform="translate(-256)"/><use xlink:href="#l"/><use xlink:href="#l" transform="translate(256)"/><use xlink:href="#l" transform="translate(-256 256)"/><use xlink:href="#l" transform="translate(0 256)"/><use xlink:href="#l" transform="translate(256 256)"/><use xlink:href="#m" transform="translate(-256 -256)"/><use xlink:href="#m" transform="translate(0 -256)"/><use xlink:href="#m" transform="translate(256 -256)"/><use xlink:href="#m" transform="translate(-256)"/><use xlink:href="#m"/><use xlink:href="#m" transform="translate(256)"/><use xlink:href="#m" transform="translate(-256 256)"/><use xlink:href="#m" transform="translate(0 256)"/><use xlink:href="#m" transform="translate(256 256)"/><use xlink:href="#n" transform="translate(-256 -256)"/><use xlink:href="#n" transform="translate(0 -256)"/><use xlink:href="#n" transform="translate(256 -256)"/><use xlink:href="#n" transform="translate(-256)"/><use xlink:href="#n"/><use xlink:href="#n" transform="translate(256)"/><use xlink:href="#n" transform="translate(-256 256)"/><use xlink:href="#n" transform="translate(0 256)"/><use xlink:href="#n" transform="translate(256 256)"/></svg>