<svg width="34" height="34" xmlns="http://www.w3.org/2000/svg"><path d="M29.952 0H4.048A4.05 4.05 0 0 0 0 4.048v25.904A4.05 4.05 0 0 0 4.048 34h25.904A4.05 4.05 0 0 0 34 29.952V4.048A4.05 4.05 0 0 0 29.952 0ZM10.524 12.952v15.381H5.667v-15.38ZM5.667 8.476c0-1.134.971-2 2.428-2 1.457 0 2.372.866 2.429 2 0 1.133-.907 2.048-2.429 2.048-1.457 0-2.428-.915-2.428-2.048zm22.666 19.857h-4.857v-8.095c0-1.619-.81-3.238-2.833-3.27h-.065c-1.959 0-2.768 1.667-2.768 3.27v8.095h-4.858v-15.38h4.858v2.072s1.562-2.073 4.703-2.073c3.214 0 5.82 2.21 5.82 6.687z" style="stroke-width:.809523"/></svg>